<svg xmlns="http://www.w3.org/2000/svg" width="32" height="32" viewBox="0 0 32 32">
  <defs>
    <linearGradient id="paperclipGradient" x1="0%" y1="0%" x2="100%" y2="100%">
      <stop offset="0%" style="stop-color:#c0c0c0;stop-opacity:1" />
      <stop offset="100%" style="stop-color:#808080;stop-opacity:1" />
    </linearGradient>
  </defs>
  
  <!-- Paperclip shape -->
  <path d="M8 4 C6 4 4 6 4 8 L4 20 C4 24 7 28 12 28 C17 28 20 24 20 20 L20 10 C20 8 18 6 16 6 C14 6 12 8 12 10 L12 18 C12 19 13 20 14 20 C15 20 16 19 16 18 L16 12" 
        stroke="url(#paperclipGradient)" 
        stroke-width="2" 
        fill="none" 
        stroke-linecap="round" 
        stroke-linejoin="round"/>
  
  <!-- Inner curve for dimension -->
  <path d="M14 8 C16 8 18 10 18 12 L18 20 C18 22 16 24 14 24 C12 24 10 22 10 20 L10 8" 
        stroke="#a0a0a0" 
        stroke-width="1" 
        fill="none" 
        stroke-linecap="round" 
        opacity="0.6"/>
</svg>